# xmcd CD database file
#
# Track frame offsets:
#	150
#	26772
#	47470
#	67122
#	89535
#	113315
#	128272
#	144447
#	167022
#	185405
#
# Disc length: 2749 seconds
#
# Revision: 0
# Processed by: cddbd v1.5PL3 Copyright (c) Steve Scherf et al.
# Submitted via: CDex 1.50beta9
#
DISCID=7a0abb0a
DTITLE=In the Soup - 03
DYEAR=2002
DGENRE=Rock
TTITLE0=バイブレイション
TTITLE1=青春とは
TTITLE2=ひまわり
TTITLE3=グリーン　グリーン
TTITLE4=ブランコ
TTITLE5=男なら
TTITLE6=光った汗を僕は信じてる
TTITLE7=青空
TTITLE8=君の涙
TTITLE9=心臓の唄
EXTD=YEAR: 2002
EXTT0=
EXTT1=
EXTT2=
EXTT3=
EXTT4=
EXTT5=
EXTT6=
EXTT7=
EXTT8=
EXTT9=
PLAYORDER=
